<svg width="2019" height="470" viewBox="0 0 2019 470" fill="none" xmlns="http://www.w3.org/2000/svg">
<path d="M0.421875 7.39062C12.7917 10.3203 23.8594 12.599 33.625 14.2266C43.7161 15.5286 52.1797 16.5052 59.0156 17.1562C67.1536 18.1328 74.3151 18.4583 80.5 18.1328C88.3125 17.8073 98.0781 16.668 109.797 14.7148C121.516 12.7617 133.885 10.8086 146.906 8.85547C159.927 6.90234 172.785 5.27474 185.48 3.97266C198.176 2.67057 209.243 2.50781 218.684 3.48438C228.124 4.46094 238.052 6.73958 248.469 10.3203C258.885 13.5755 268.651 18.1328 277.766 23.9922C286.88 29.526 294.693 36.362 301.203 44.5C308.039 52.638 312.271 62.0781 313.898 72.8203C315.526 83.237 314.549 94.4674 310.969 106.512C307.388 118.23 301.691 129.786 293.879 141.18C286.066 152.247 276.301 162.501 264.582 171.941C252.863 181.382 239.842 189.031 225.52 194.891C214.126 199.122 201.757 202.378 188.41 204.656C177.017 206.609 163.671 207.911 148.371 208.562C133.397 208.888 117.447 207.26 100.52 203.68C98.2409 213.12 96.9388 221.909 96.6133 230.047C96.6133 237.859 96.9388 244.858 97.5898 251.043C98.5664 258.204 99.8685 264.715 101.496 270.574C103.449 276.434 105.891 283.27 108.82 291.082C111.424 297.592 114.354 305.568 117.609 315.008C121.19 324.122 125.422 334.376 130.305 345.77C124.445 345.77 118.749 345.932 113.215 346.258C107.681 346.258 102.635 346.421 98.0781 346.746C92.8698 347.072 87.987 347.397 83.4297 347.723C78.2214 348.048 72.362 348.699 65.8516 349.676C60.3177 350.327 53.319 351.303 44.8555 352.605C36.7174 353.908 27.4401 355.535 17.0234 357.488C23.8594 347.723 29.2305 338.771 33.1367 330.633C37.3685 322.169 40.4609 314.845 42.4141 308.66C44.6927 301.499 46.1576 294.988 46.8086 289.129C47.1341 284.246 47.1341 275.62 46.8086 263.25C46.8086 250.88 46.6458 236.557 46.3203 220.281C45.9948 204.005 45.5065 186.915 44.8555 169.012C44.2044 151.108 43.3906 134.344 42.4141 118.719C41.4375 102.768 40.2982 89.0964 38.9961 77.7031C38.0195 66.3099 37.043 58.8229 36.0664 55.2422C34.7643 51.0104 32.4857 46.4531 29.2305 41.5703C26.6263 37.3385 22.8828 32.4557 18 26.9219C13.4427 21.0625 7.58333 14.5521 0.421875 7.39062ZM101.496 103.582C101.171 106.837 101.008 110.255 101.008 113.836C101.008 120.672 101.496 129.461 102.473 140.203C104.751 145.737 107.518 150.294 110.773 153.875C114.354 157.456 118.098 160.223 122.004 162.176C126.236 164.129 130.467 165.431 134.699 166.082C138.931 166.733 143.163 167.059 147.395 167.059C157.16 166.733 167.414 164.454 178.156 160.223C192.479 154.038 202.57 145.249 208.43 133.855C214.289 122.462 217.382 110.743 217.707 98.6992C218.033 86.6549 215.917 75.5872 211.359 65.4961C207.128 55.4049 201.919 48.569 195.734 44.9883C190.526 42.7096 183.853 41.7331 175.715 42.0586C168.553 42.3841 159.602 44.1745 148.859 47.4297C138.117 50.6849 124.934 56.5443 109.309 65.0078C107.681 70.8672 106.379 76.0755 105.402 80.6328C104.426 85.1901 103.612 89.2591 102.961 92.8398C102.31 96.7461 101.822 100.327 101.496 103.582ZM311.945 123.113C318.13 123.439 323.664 123.602 328.547 123.602C333.755 123.276 338.15 122.951 341.73 122.625C345.962 122.299 349.706 121.974 352.961 121.648C357.844 120.997 362.889 120.184 368.098 119.207C372.655 118.556 377.375 117.742 382.258 116.766C387.466 115.464 392.512 113.999 397.395 112.371C395.441 117.254 393.814 121.486 392.512 125.066C391.21 128.647 390.233 131.74 389.582 134.344C388.605 137.273 388.117 139.715 388.117 141.668C387.792 143.947 387.629 146.714 387.629 149.969C387.303 155.503 387.303 164.454 387.629 176.824C404.556 162.176 418.716 150.783 430.109 142.645C441.828 134.507 451.105 128.159 457.941 123.602C466.079 118.393 472.427 114.975 476.984 113.348C489.029 111.395 499.608 114.161 508.723 121.648C512.629 124.904 516.372 129.298 519.953 134.832C523.534 140.04 526.626 147.039 529.23 155.828C531.835 164.617 533.788 175.197 535.09 187.566C536.392 199.611 536.555 214.096 535.578 231.023C528.742 231.674 522.557 232.326 517.023 232.977C511.815 233.628 507.421 234.116 503.84 234.441C499.608 235.092 495.702 235.418 492.121 235.418L478.938 236.883C474.38 237.534 468.684 238.185 461.848 238.836C455.337 239.161 447.362 239.812 437.922 240.789C451.594 229.721 460.383 220.118 464.289 211.98C468.521 203.517 470.311 196.518 469.66 190.984C469.009 184.799 466.079 179.428 460.871 174.871C454.686 171.29 448.013 169.988 440.852 170.965C434.667 171.616 427.505 174.383 419.367 179.266C411.229 184.148 402.603 193.263 393.488 206.609C394.139 227.443 394.79 244.695 395.441 258.367C396.418 272.039 397.232 283.107 397.883 291.57C398.859 301.336 399.673 308.986 400.324 314.52C401.301 319.402 403.254 324.611 406.184 330.145C408.462 334.702 411.717 339.747 415.949 345.281C420.181 350.815 425.715 356.349 432.551 361.883C418.228 361.232 406.509 361.232 397.395 361.883C391.861 362.208 386.978 362.534 382.746 362.859C378.189 363.51 373.306 364.161 368.098 364.812C363.54 365.464 358.169 366.115 351.984 366.766C346.125 367.742 339.615 368.719 332.453 369.695C335.057 366.115 337.173 361.883 338.801 357C340.428 352.443 341.73 348.048 342.707 343.816C344.009 338.934 344.986 333.888 345.637 328.68C345.962 324.122 346.125 317.286 346.125 308.172C346.451 299.057 346.288 288.803 345.637 277.41C345.311 265.691 344.823 253.647 344.172 241.277C343.521 228.582 342.707 216.701 341.73 205.633C340.754 194.565 339.615 184.962 338.312 176.824C337.336 168.361 336.197 162.501 334.895 159.246C333.267 155.34 331.314 151.434 329.035 147.527C327.082 143.947 324.641 140.203 321.711 136.297C318.781 132.065 315.526 127.671 311.945 123.113ZM556.086 138.738L645.93 139.715C640.721 159.572 636.815 176.499 634.211 190.496C631.932 204.493 630.467 216.212 629.816 225.652C628.514 236.395 628.189 245.509 628.84 252.996C629.816 259.832 631.444 267.156 633.723 274.969C635.676 281.479 638.605 288.966 642.512 297.43C646.418 305.893 651.626 314.357 658.137 322.82C654.23 321.518 649.999 320.542 645.441 319.891C640.884 319.24 636.652 318.751 632.746 318.426C628.189 318.1 623.632 318.1 619.074 318.426C614.517 318.751 609.471 319.24 603.938 319.891C599.38 320.542 593.846 321.355 587.336 322.332C580.826 323.309 573.99 324.611 566.828 326.238C571.711 311.59 575.454 298.895 578.059 288.152C580.988 277.41 583.104 268.458 584.406 261.297C585.708 252.833 586.522 245.997 586.848 240.789C586.848 234.279 586.848 226.954 586.848 218.816C586.848 210.353 586.848 202.215 586.848 194.402C586.848 186.59 586.685 179.754 586.359 173.895C586.034 167.71 585.383 163.803 584.406 162.176L579.523 157.293C577.57 155.665 574.641 153.387 570.734 150.457C567.154 147.202 562.271 143.296 556.086 138.738ZM590.754 63.543C597.59 59.9622 604.426 58.9857 611.262 60.6133C618.423 62.2409 623.957 65.3333 627.863 69.8906C631.77 74.4479 633.072 79.819 631.77 86.0039C630.793 92.1888 625.585 98.2109 616.145 104.07C606.704 109.604 598.404 111.557 591.242 109.93C584.081 108.302 579.035 104.884 576.105 99.6758C573.176 94.4674 572.688 88.4453 574.641 81.6094C576.594 74.4479 581.965 68.4258 590.754 63.543ZM650.812 107.488C657.323 108.465 663.182 109.279 668.391 109.93C673.273 110.255 677.668 110.581 681.574 110.906C685.806 111.232 689.875 111.395 693.781 111.395C697.362 111.395 701.919 111.232 707.453 110.906C712.01 110.581 717.87 110.255 725.031 109.93C732.518 109.279 741.307 108.465 751.398 107.488C750.747 108.79 749.445 112.859 747.492 119.695C745.539 126.206 743.586 134.344 741.633 144.109C739.68 153.549 737.889 164.129 736.262 175.848C734.96 187.241 734.309 198.634 734.309 210.027C734.634 221.095 736.099 231.674 738.703 241.766C741.307 251.531 745.539 259.507 751.398 265.691C763.768 278.387 774.673 286.036 784.113 288.641C793.879 291.245 802.342 290.919 809.504 287.664C816.665 284.409 822.525 279.526 827.082 273.016C831.639 266.505 834.895 260.483 836.848 254.949C841.73 239.975 844.66 224.188 845.637 207.586C846.288 193.263 845.148 177.312 842.219 159.734C839.289 142.156 832.29 124.253 821.223 106.023C829.686 106.674 837.01 107.163 843.195 107.488C849.38 107.814 854.751 108.139 859.309 108.465C864.517 108.79 869.074 109.116 872.98 109.441C876.561 109.767 880.793 109.767 885.676 109.441C889.908 109.441 894.953 109.279 900.812 108.953C906.997 108.302 913.833 107.651 921.32 107C922.622 138.901 923.762 167.384 924.738 192.449C925.715 217.189 926.366 239.161 926.691 258.367C927.342 277.247 927.668 293.686 927.668 307.684C927.668 321.355 927.668 332.911 927.668 342.352C927.342 364.812 926.366 379.624 924.738 386.785C922.134 396.876 917.414 406.967 910.578 417.059C904.068 427.15 895.767 436.102 885.676 443.914C875.585 452.052 863.866 458.237 850.52 462.469C837.499 467.026 823.176 468.654 807.551 467.352C792.251 466.049 780.044 463.934 770.93 461.004C762.141 458.4 755.142 455.307 749.934 451.727C745.051 448.146 741.47 444.402 739.191 440.496C737.238 436.59 735.773 432.521 734.797 428.289C733.82 424.383 732.844 420.639 731.867 417.059C730.891 413.478 728.938 410.385 726.008 407.781C722.427 404.852 718.684 401.922 714.777 398.992C711.197 396.388 707.29 393.784 703.059 391.18C699.152 388.576 695.246 386.46 691.34 384.832L795.344 378.973C792.414 382.879 790.298 386.46 788.996 389.715C787.694 392.97 786.88 395.737 786.555 398.016C786.229 400.945 786.392 403.387 787.043 405.34C788.345 409.246 790.624 413.478 793.879 418.035C797.46 422.918 802.017 426.661 807.551 429.266C813.085 432.195 819.595 433.172 827.082 432.195C834.895 431.219 843.684 427.15 853.449 419.988C861.587 413.803 868.423 403.875 873.957 390.203C878.514 378.484 882.095 362.046 884.699 340.887C887.303 319.728 886.815 291.896 883.234 257.391C877.375 277.573 869.4 293.035 859.309 303.777C849.217 314.52 839.126 322.332 829.035 327.215C817.316 333.074 805.109 336.167 792.414 336.492C775.487 335.841 761.001 333.725 748.957 330.145C736.913 326.238 726.984 321.03 719.172 314.52C711.359 308.009 705.174 300.359 700.617 291.57C696.385 282.456 693.293 272.365 691.34 261.297C689.387 250.229 688.41 239.161 688.41 228.094C688.41 216.701 688.41 206.121 688.41 196.355C688.736 186.59 688.898 177.801 688.898 169.988C688.898 161.85 688.085 155.34 686.457 150.457C684.504 145.574 681.9 140.691 678.645 135.809C676.04 131.577 672.46 127.02 667.902 122.137C663.02 116.928 657.323 112.046 650.812 107.488ZM997.004 159.246C998.632 157.293 999.608 153.712 999.934 148.504C1000.58 142.97 1001.89 136.785 1003.84 129.949C1006.12 123.113 1009.86 115.952 1015.07 108.465C1020.28 100.978 1028.74 93.9792 1040.46 87.4688C1051.85 80.9583 1062.92 77.0521 1073.66 75.75C1084.41 74.4479 1094.66 74.9362 1104.43 77.2148C1114.19 79.4935 1123.31 83.0742 1131.77 87.957C1140.56 92.8398 1148.53 98.2109 1155.7 104.07C1160.58 107.977 1164.48 113.673 1167.41 121.16C1170.34 128.322 1172.62 136.46 1174.25 145.574C1175.88 154.689 1177.02 164.292 1177.67 174.383C1178.64 184.148 1179.3 193.751 1179.62 203.191C1179.95 212.306 1180.11 220.77 1180.11 228.582C1180.43 236.069 1181.09 242.254 1182.06 247.137C1183.36 254.298 1185.64 260.483 1188.9 265.691C1192.15 270.574 1195.73 274.806 1199.64 278.387C1203.55 281.642 1207.45 284.246 1211.36 286.199C1215.27 288.152 1218.68 289.617 1221.61 290.594C1223.57 291.57 1225.36 292.221 1226.98 292.547C1230.24 293.849 1232.52 293.849 1233.82 292.547C1231.87 297.104 1230.08 301.01 1228.45 304.266C1226.82 307.521 1225.52 310.288 1224.54 312.566C1223.24 315.171 1222.1 317.286 1221.12 318.914C1220.15 320.867 1219.01 322.658 1217.71 324.285C1216.73 325.913 1215.43 327.703 1213.8 329.656C1212.17 331.609 1210.55 333.725 1208.92 336.004C1204.69 334.376 1200.62 332.423 1196.71 330.145C1193.13 327.866 1189.88 325.75 1186.95 323.797C1183.36 321.518 1180.11 319.24 1177.18 316.961C1174.25 314.682 1171.48 312.078 1168.88 309.148C1166.6 306.544 1164.16 303.777 1161.55 300.848C1159.28 297.918 1157.32 294.663 1155.7 291.082C1153.74 295.314 1149.02 301.336 1141.54 309.148C1134.37 316.961 1124.93 324.122 1113.21 330.633C1101.5 336.818 1087.82 341.212 1072.2 343.816C1056.9 346.421 1039.97 344.63 1021.42 338.445C1013.28 335.841 1005.63 332.098 998.469 327.215C991.307 322.007 985.122 315.822 979.914 308.66C975.031 301.499 971.451 293.361 969.172 284.246C967.219 274.806 967.382 264.389 969.66 252.996C971.939 241.603 976.008 232 981.867 224.188C987.727 216.375 994.725 210.027 1002.86 205.145C1011 200.262 1020.12 196.518 1030.21 193.914C1040.3 191.31 1050.71 189.52 1061.46 188.543C1069.92 188.217 1078.38 188.706 1086.85 190.008C1094.01 191.31 1101.5 193.751 1109.31 197.332C1117.12 200.587 1123.79 205.633 1129.33 212.469C1129 195.216 1128.35 181.544 1127.38 171.453C1126.72 161.036 1126.07 153.061 1125.42 147.527C1124.12 141.017 1122.98 136.46 1122 133.855C1120.38 131.577 1118.59 128.973 1116.63 126.043C1115.01 123.113 1112.89 120.509 1110.29 118.23C1107.68 115.626 1104.43 113.51 1100.52 111.883C1096.61 110.255 1092.06 109.604 1086.85 109.93C1081.31 110.255 1076.92 111.72 1073.66 114.324C1070.41 116.928 1067.8 120.021 1065.85 123.602C1064.22 126.857 1063.25 130.438 1062.92 134.344C1062.6 138.25 1062.76 141.668 1063.41 144.598C1064.06 146.551 1065.04 148.667 1066.34 150.945C1067.64 152.898 1069.43 155.014 1071.71 157.293C1073.99 159.572 1077.08 161.525 1080.99 163.152C1073.5 164.129 1066.83 164.943 1060.97 165.594C1055.11 165.919 1050.06 166.408 1045.83 167.059C1040.95 167.71 1036.72 168.198 1033.14 168.523C1029.56 168.849 1025.32 169.5 1020.44 170.477C1016.21 171.128 1011 171.941 1004.82 172.918C998.632 173.895 991.47 175.197 983.332 176.824C985.285 174.546 987.076 172.43 988.703 170.477C990.331 168.198 991.796 166.245 993.098 164.617C994.4 162.664 995.702 160.874 997.004 159.246ZM1070.25 217.352C1064.39 217.677 1058.53 219.142 1052.67 221.746C1046.81 224.025 1041.6 227.443 1037.04 232C1032.49 236.232 1028.58 241.277 1025.32 247.137C1022.39 252.671 1020.93 258.855 1020.93 265.691C1020.93 272.527 1022.56 278.549 1025.81 283.758C1029.39 288.641 1033.95 292.71 1039.48 295.965C1045.34 299.22 1051.53 301.173 1058.04 301.824C1064.88 302.475 1071.55 301.824 1078.06 299.871C1084.24 297.592 1090.1 294.012 1095.64 289.129C1101.17 283.921 1105.89 278.387 1109.8 272.527C1113.7 266.342 1116.47 260.32 1118.1 254.461C1119.73 248.276 1119.89 243.23 1118.59 239.324C1115.98 230.861 1110.12 225.001 1101.01 221.746C1091.89 218.165 1081.64 216.701 1070.25 217.352ZM1244.07 303.289C1246.35 292.547 1247.98 283.107 1248.96 274.969C1250.26 266.505 1251.24 259.507 1251.89 253.973C1252.54 247.462 1252.86 241.928 1252.86 237.371C1252.54 231.837 1252.21 225.327 1251.89 217.84C1251.89 210.027 1251.56 202.378 1250.91 194.891C1250.58 187.078 1250.1 180.242 1249.45 174.383C1248.79 168.198 1247.98 163.803 1247 161.199C1245.7 158.595 1243.91 155.828 1241.63 152.898C1237.08 147.365 1230.4 141.993 1221.61 136.785C1229.1 135.158 1235.45 133.855 1240.66 132.879C1246.19 131.577 1250.75 130.438 1254.33 129.461C1258.23 128.159 1261.65 127.02 1264.58 126.043C1267.19 125.066 1270.28 124.09 1273.86 123.113C1276.79 122.462 1280.37 121.648 1284.6 120.672C1288.83 119.695 1293.72 118.556 1299.25 117.254L1297.79 161.688C1308.2 149.318 1318.78 140.04 1329.52 133.855C1340.27 127.671 1350.36 123.276 1359.8 120.672C1370.54 117.417 1381.12 115.789 1391.54 115.789C1404.56 116.44 1416.6 118.556 1427.67 122.137C1439.06 125.717 1448.83 129.949 1456.96 134.832C1465.43 139.389 1472.26 144.272 1477.47 149.48C1482.68 154.689 1485.77 159.246 1486.75 163.152C1490.66 175.848 1491.63 187.566 1489.68 198.309C1487.73 208.725 1485.12 218.979 1481.87 229.07C1478.94 238.836 1476.33 248.602 1474.05 258.367C1472.1 268.133 1472.92 278.712 1476.5 290.105C1477.8 293.035 1479.1 295.965 1480.4 298.895C1481.7 301.499 1483.33 304.103 1485.29 306.707C1487.24 309.311 1489.52 311.427 1492.12 313.055C1488.54 312.729 1484.96 312.566 1481.38 312.566C1477.8 312.241 1474.54 311.915 1471.61 311.59C1468.03 311.264 1464.78 310.939 1461.85 310.613C1458.59 310.288 1454.2 310.125 1448.66 310.125C1439.22 310.125 1424.58 310.613 1404.72 311.59C1407.65 304.754 1409.93 299.057 1411.55 294.5C1413.51 289.617 1415.14 285.711 1416.44 282.781C1417.74 279.201 1418.72 276.434 1419.37 274.48C1423.27 265.04 1425.55 254.298 1426.2 242.254C1427.18 230.21 1426.37 218.003 1423.76 205.633C1422.79 201.401 1421.16 196.355 1418.88 190.496C1416.6 184.637 1413.51 178.94 1409.6 173.406C1406.02 167.872 1401.63 163.152 1396.42 159.246C1391.54 155.34 1385.84 153.061 1379.33 152.41C1372.82 151.759 1365.49 153.387 1357.36 157.293C1349.54 161.199 1341.08 168.361 1331.96 178.777C1325.13 187.566 1319.76 198.309 1315.85 211.004C1312.27 221.746 1309.83 235.255 1308.53 251.531C1307.23 267.482 1309.18 286.199 1314.39 307.684C1309.83 307.033 1305.6 306.707 1301.69 306.707C1297.79 306.382 1294.53 306.056 1291.93 305.73C1288.67 305.405 1285.74 305.079 1283.14 304.754C1280.21 304.754 1276.95 304.591 1273.37 304.266C1270.12 304.266 1266.05 304.266 1261.16 304.266C1256.28 303.94 1250.58 303.615 1244.07 303.289ZM1517.02 4.94922C1520.6 6.57682 1524.84 7.71615 1529.72 8.36719C1534.93 9.01823 1539.81 9.34375 1544.37 9.34375C1549.9 9.34375 1555.6 9.18099 1561.46 8.85547C1567.32 8.52995 1574.48 7.87891 1582.94 6.90234C1589.78 6.2513 1598.24 5.4375 1608.33 4.46094C1618.42 3.48438 1629.65 2.18229 1642.02 0.554688C1637.47 2.83333 1633.56 5.27474 1630.3 7.87891C1627.05 10.4831 1624.28 13.0872 1622 15.6914C1619.4 18.6211 1617.28 21.5508 1615.66 24.4805C1613.38 28.3867 1610.29 35.2227 1606.38 44.9883C1602.8 54.4284 1599.05 65.0078 1595.15 76.7266C1591.57 88.4453 1588.31 100.327 1585.38 112.371C1582.78 124.415 1581.31 134.669 1580.99 143.133C1580.66 150.294 1580.34 158.432 1580.01 167.547C1579.69 175.359 1579.36 184.962 1579.04 196.355C1578.71 207.749 1578.38 220.77 1578.06 235.418C1601.5 218.491 1619.56 204.982 1632.26 194.891C1644.95 184.474 1654.23 176.499 1660.09 170.965C1666.93 164.78 1670.99 160.385 1672.3 157.781C1671.97 155.828 1671.16 153.712 1669.86 151.434C1668.23 149.48 1665.95 147.202 1663.02 144.598C1660.09 141.993 1655.7 139.064 1649.84 135.809C1658.3 136.785 1665.62 137.436 1671.81 137.762C1678.32 138.087 1683.85 138.413 1688.41 138.738C1693.62 139.064 1698.18 139.064 1702.08 138.738C1706.31 138.738 1711.52 138.576 1717.71 138.25C1728.45 137.924 1745.05 137.436 1767.51 136.785C1745.7 148.178 1728.45 157.944 1715.75 166.082C1708.59 170.639 1702.24 174.871 1696.71 178.777C1691.18 183.009 1685.48 187.404 1679.62 191.961C1674.41 195.867 1668.39 200.424 1661.55 205.633C1655.04 210.841 1648.53 216.375 1642.02 222.234C1653.42 240.789 1663.35 256.089 1671.81 268.133C1680.6 280.177 1687.92 289.943 1693.78 297.43C1700.62 306.219 1706.64 313.217 1711.85 318.426C1717.06 323.309 1723.89 328.842 1732.36 335.027C1739.52 340.561 1748.79 347.072 1760.19 354.559C1771.91 361.72 1786.07 370.021 1802.67 379.461C1794.2 377.833 1786.07 376.694 1778.25 376.043C1770.44 375.717 1763.77 375.717 1758.23 376.043C1751.4 376.368 1745.21 377.02 1739.68 377.996C1733.82 379.298 1727.31 380.926 1720.15 382.879C1713.96 384.507 1706.64 386.622 1698.18 389.227C1690.04 392.156 1681.09 395.9 1671.32 400.457C1677.51 395.9 1682.06 391.505 1684.99 387.273C1688.25 383.367 1690.53 380.112 1691.83 377.508C1693.13 374.253 1693.62 371.486 1693.29 369.207C1691.67 365.952 1687.92 359.279 1682.06 349.188C1676.53 340.724 1668.39 328.354 1657.65 312.078C1646.91 295.802 1631.61 273.667 1611.75 245.672C1610.77 245.997 1609.15 246.974 1606.87 248.602C1604.91 250.229 1601.98 252.508 1598.08 255.438C1594.17 258.042 1588.96 261.948 1582.45 267.156L1595.64 352.605C1592.71 353.908 1589.45 355.047 1585.87 356.023C1582.62 357 1579.52 357.814 1576.59 358.465C1573.01 359.441 1569.43 360.092 1565.85 360.418C1562.27 360.743 1558.04 361.395 1553.16 362.371C1548.92 363.022 1543.88 363.836 1538.02 364.812C1532.16 366.115 1525.49 367.579 1518 369.207C1522.23 366.277 1525.65 362.859 1528.25 358.953C1530.86 355.372 1532.97 351.954 1534.6 348.699C1536.23 345.118 1537.69 341.375 1539 337.469C1539.65 334.214 1540.3 325.75 1540.95 312.078C1541.93 298.406 1542.74 282.13 1543.39 263.25C1544.04 244.044 1544.53 223.536 1544.86 201.727C1545.51 179.917 1545.83 159.409 1545.83 140.203C1545.83 120.672 1545.67 103.745 1545.34 89.4219C1545.02 74.7734 1544.37 65.3333 1543.39 61.1016C1541.76 55.8932 1539.81 50.3594 1537.53 44.5C1535.58 39.2917 1532.81 33.4323 1529.23 26.9219C1525.98 20.0859 1521.91 12.7617 1517.02 4.94922ZM1781.67 159.246C1783.3 157.293 1784.28 153.712 1784.6 148.504C1785.25 142.97 1786.55 136.785 1788.51 129.949C1790.79 123.113 1794.53 115.952 1799.74 108.465C1804.95 100.978 1813.41 93.9792 1825.13 87.4688C1836.52 80.9583 1847.59 77.0521 1858.33 75.75C1869.07 74.4479 1879.33 74.9362 1889.09 77.2148C1898.86 79.4935 1907.97 83.0742 1916.44 87.957C1925.23 92.8398 1933.2 98.2109 1940.36 104.07C1945.25 107.977 1949.15 113.673 1952.08 121.16C1955.01 128.322 1957.29 136.46 1958.92 145.574C1960.55 154.689 1961.68 164.292 1962.34 174.383C1963.31 184.148 1963.96 193.751 1964.29 203.191C1964.61 212.306 1964.78 220.77 1964.78 228.582C1965.1 236.069 1965.75 242.254 1966.73 247.137C1968.03 254.298 1970.31 260.483 1973.57 265.691C1976.82 270.574 1980.4 274.806 1984.31 278.387C1988.21 281.642 1992.12 284.246 1996.03 286.199C1999.93 288.152 2003.35 289.617 2006.28 290.594C2008.23 291.57 2010.02 292.221 2011.65 292.547C2014.91 293.849 2017.19 293.849 2018.49 292.547C2016.54 297.104 2014.74 301.01 2013.12 304.266C2011.49 307.521 2010.19 310.288 2009.21 312.566C2007.91 315.171 2006.77 317.286 2005.79 318.914C2004.82 320.867 2003.68 322.658 2002.38 324.285C2001.4 325.913 2000.1 327.703 1998.47 329.656C1996.84 331.609 1995.21 333.725 1993.59 336.004C1989.35 334.376 1985.29 332.423 1981.38 330.145C1977.8 327.866 1974.54 325.75 1971.61 323.797C1968.03 321.518 1964.78 319.24 1961.85 316.961C1958.92 314.682 1956.15 312.078 1953.55 309.148C1951.27 306.544 1948.83 303.777 1946.22 300.848C1943.94 297.918 1941.99 294.663 1940.36 291.082C1938.41 295.314 1933.69 301.336 1926.2 309.148C1919.04 316.961 1909.6 324.122 1897.88 330.633C1886.16 336.818 1872.49 341.212 1856.87 343.816C1841.57 346.421 1824.64 344.63 1806.09 338.445C1797.95 335.841 1790.3 332.098 1783.14 327.215C1775.98 322.007 1769.79 315.822 1764.58 308.66C1759.7 301.499 1756.12 293.361 1753.84 284.246C1751.89 274.806 1752.05 264.389 1754.33 252.996C1756.61 241.603 1760.68 232 1766.54 224.188C1772.39 216.375 1779.39 210.027 1787.53 205.145C1795.67 200.262 1804.78 196.518 1814.88 193.914C1824.97 191.31 1835.38 189.52 1846.12 188.543C1854.59 188.217 1863.05 188.706 1871.52 190.008C1878.68 191.31 1886.16 193.751 1893.98 197.332C1901.79 200.587 1908.46 205.633 1914 212.469C1913.67 195.216 1913.02 181.544 1912.04 171.453C1911.39 161.036 1910.74 153.061 1910.09 147.527C1908.79 141.017 1907.65 136.46 1906.67 133.855C1905.04 131.577 1903.25 128.973 1901.3 126.043C1899.67 123.113 1897.56 120.509 1894.95 118.23C1892.35 115.626 1889.09 113.51 1885.19 111.883C1881.28 110.255 1876.72 109.604 1871.52 109.93C1865.98 110.255 1861.59 111.72 1858.33 114.324C1855.08 116.928 1852.47 120.021 1850.52 123.602C1848.89 126.857 1847.92 130.438 1847.59 134.344C1847.26 138.25 1847.43 141.668 1848.08 144.598C1848.73 146.551 1849.71 148.667 1851.01 150.945C1852.31 152.898 1854.1 155.014 1856.38 157.293C1858.66 159.572 1861.75 161.525 1865.66 163.152C1858.17 164.129 1851.5 164.943 1845.64 165.594C1839.78 165.919 1834.73 166.408 1830.5 167.059C1825.62 167.71 1821.39 168.198 1817.8 168.523C1814.22 168.849 1809.99 169.5 1805.11 170.477C1800.88 171.128 1795.67 171.941 1789.48 172.918C1783.3 173.895 1776.14 175.197 1768 176.824C1769.95 174.546 1771.74 172.43 1773.37 170.477C1775 168.198 1776.46 166.245 1777.77 164.617C1779.07 162.664 1780.37 160.874 1781.67 159.246ZM1854.91 217.352C1849.05 217.677 1843.2 219.142 1837.34 221.746C1831.48 224.025 1826.27 227.443 1821.71 232C1817.15 236.232 1813.25 241.277 1809.99 247.137C1807.06 252.671 1805.6 258.855 1805.6 265.691C1805.6 272.527 1807.23 278.549 1810.48 283.758C1814.06 288.641 1818.62 292.71 1824.15 295.965C1830.01 299.22 1836.2 301.173 1842.71 301.824C1849.54 302.475 1856.22 301.824 1862.73 299.871C1868.91 297.592 1874.77 294.012 1880.3 289.129C1885.84 283.921 1890.56 278.387 1894.46 272.527C1898.37 266.342 1901.14 260.32 1902.77 254.461C1904.39 248.276 1904.56 243.23 1903.25 239.324C1900.65 230.861 1894.79 225.001 1885.68 221.746C1876.56 218.165 1866.31 216.701 1854.91 217.352Z" fill="black"/>
</svg>
